<svg width="18" height="18" viewBox="0 0 18 18" fill="none" xmlns="http://www.w3.org/2000/svg">
<path fill-rule="evenodd" clip-rule="evenodd" d="M10.2083 1.45833C10.2083 1.07156 10.0547 0.700627 9.7812 0.427136C9.50771 0.153646 9.13677 0 8.75 0C8.36323 0 7.99229 0.153646 7.7188 0.427136C7.44531 0.700627 7.29167 1.07156 7.29167 1.45833V7.29167H1.45833C1.07156 7.29167 0.700627 7.44531 0.427136 7.7188C0.153646 7.99229 0 8.36323 0 8.75C0 9.13677 0.153646 9.50771 0.427136 9.7812C0.700627 10.0547 1.07156 10.2083 1.45833 10.2083H7.29167V16.0417C7.29167 16.4284 7.44531 16.7994 7.7188 17.0729C7.99229 17.3464 8.36323 17.5 8.75 17.5C9.13677 17.5 9.50771 17.3464 9.7812 17.0729C10.0547 16.7994 10.2083 16.4284 10.2083 16.0417V10.2083H16.0417C16.4284 10.2083 16.7994 10.0547 17.0729 9.7812C17.3464 9.50771 17.5 9.13677 17.5 8.75C17.5 8.36323 17.3464 7.99229 17.0729 7.7188C16.7994 7.44531 16.4284 7.29167 16.0417 7.29167H10.2083V1.45833Z" fill="#6C6C6C"/>
</svg>
