<svg width="23" height="23" viewBox="0 0 23 23" fill="none" xmlns="http://www.w3.org/2000/svg">
<path d="M18.2082 10.5414H7.50366L12.1803 5.86472C12.5541 5.49097 12.5541 4.87764 12.1803 4.50389C12.0917 4.41505 11.9864 4.34457 11.8704 4.29648C11.7545 4.24839 11.6302 4.22363 11.5047 4.22363C11.3792 4.22363 11.2549 4.24839 11.139 4.29648C11.023 4.34457 10.9177 4.41505 10.8291 4.50389L4.51366 10.8193C4.42482 10.908 4.35433 11.0133 4.30624 11.1292C4.25815 11.2451 4.2334 11.3694 4.2334 11.4949C4.2334 11.6204 4.25815 11.7447 4.30624 11.8607C4.35433 11.9766 4.42482 12.0819 4.51366 12.1706L10.8291 18.486C10.9178 18.5747 11.0231 18.6451 11.1391 18.6931C11.255 18.7411 11.3792 18.7658 11.5047 18.7658C11.6302 18.7658 11.7544 18.7411 11.8703 18.6931C11.9863 18.6451 12.0916 18.5747 12.1803 18.486C12.269 18.3973 12.3394 18.2919 12.3874 18.176C12.4355 18.0601 12.4602 17.9358 12.4602 17.8103C12.4602 17.6849 12.4355 17.5606 12.3874 17.4447C12.3394 17.3288 12.269 17.2234 12.1803 17.1347L7.50366 12.4581H18.2082C18.7353 12.4581 19.1666 12.0268 19.1666 11.4997C19.1666 10.9726 18.7353 10.5414 18.2082 10.5414Z" fill="#2E563C"/>
</svg>
