<svg width="20" height="20" viewBox="0 0 20 20" fill="none" xmlns="http://www.w3.org/2000/svg">
<path d="M5.23362 2.92116C4.98881 2.92116 4.75402 3.03354 4.58091 3.23358C4.4078 3.43362 4.31055 3.70493 4.31055 3.98783V5.05449C4.31055 5.33739 4.4078 5.6087 4.58091 5.80874C4.75402 6.00878 4.98881 6.12116 5.23362 6.12116H5.69516V15.7212C5.69516 16.287 5.88967 16.8296 6.23589 17.2297C6.58211 17.6297 7.05169 17.8545 7.54132 17.8545H13.0798C13.5694 17.8545 14.039 17.6297 14.3852 17.2297C14.7314 16.8296 14.9259 16.287 14.9259 15.7212V6.12116H15.3875C15.6323 6.12116 15.8671 6.00878 16.0402 5.80874C16.2133 5.6087 16.3105 5.33739 16.3105 5.05449V3.98783C16.3105 3.70493 16.2133 3.43362 16.0402 3.23358C15.8671 3.03354 15.6323 2.92116 15.3875 2.92116H12.1567C12.1567 2.63826 12.0594 2.36695 11.8863 2.16691C11.7132 1.96687 11.4784 1.85449 11.2336 1.85449H9.38747C9.14265 1.85449 8.90787 1.96687 8.73476 2.16691C8.56165 2.36695 8.46439 2.63826 8.46439 2.92116H5.23362ZM8.00285 7.18783C8.12526 7.18783 8.24266 7.24402 8.32921 7.34404C8.41577 7.44405 8.46439 7.57971 8.46439 7.72116V15.1878C8.46439 15.3293 8.41577 15.4649 8.32921 15.565C8.24266 15.665 8.12526 15.7212 8.00285 15.7212C7.88045 15.7212 7.76305 15.665 7.6765 15.565C7.58994 15.4649 7.54132 15.3293 7.54132 15.1878V7.72116C7.54132 7.57971 7.58994 7.44405 7.6765 7.34404C7.76305 7.24402 7.88045 7.18783 8.00285 7.18783ZM10.3105 7.18783C10.433 7.18783 10.5503 7.24402 10.6369 7.34404C10.7235 7.44405 10.7721 7.57971 10.7721 7.72116V15.1878C10.7721 15.3293 10.7235 15.4649 10.6369 15.565C10.5503 15.665 10.433 15.7212 10.3105 15.7212C10.1881 15.7212 10.0707 15.665 9.98419 15.565C9.89763 15.4649 9.84901 15.3293 9.84901 15.1878V7.72116C9.84901 7.57971 9.89763 7.44405 9.98419 7.34404C10.0707 7.24402 10.1881 7.18783 10.3105 7.18783ZM13.0798 7.72116V15.1878C13.0798 15.3293 13.0312 15.4649 12.9446 15.565C12.858 15.665 12.7406 15.7212 12.6182 15.7212C12.4958 15.7212 12.3784 15.665 12.2919 15.565C12.2053 15.4649 12.1567 15.3293 12.1567 15.1878V7.72116C12.1567 7.57971 12.2053 7.44405 12.2919 7.34404C12.3784 7.24402 12.4958 7.18783 12.6182 7.18783C12.7406 7.18783 12.858 7.24402 12.9446 7.34404C13.0312 7.44405 13.0798 7.57971 13.0798 7.72116Z" fill="#2E563C"/>
</svg>
