<svg width="19" height="19" viewBox="0 0 19 19" fill="none" xmlns="http://www.w3.org/2000/svg">
<path fill-rule="evenodd" clip-rule="evenodd" d="M11.535 10.225L15.777 14.468L11.534 18.711C11.3465 18.8986 11.0922 19.0039 10.827 19.004H8C7.73478 19.004 7.48043 18.8986 7.29289 18.7111C7.10536 18.5236 7 18.2692 7 18.004V15.175C7.00006 14.9098 7.10545 14.6555 7.293 14.468L11.535 10.225ZM14 1.00268e-07C14.5046 -0.000159579 14.9906 0.190406 15.3605 0.533497C15.7305 0.876588 15.9572 1.34684 15.995 1.85L16 2V6.02C15.2445 5.87699 14.4662 5.91015 13.7257 6.11689C12.9851 6.32362 12.3022 6.69837 11.73 7.212L11.534 7.397L5.878 13.054C5.36391 13.5682 5.05403 14.2515 5.006 14.977L4.999 15.175V18.004C4.99908 18.2757 5.03609 18.5462 5.109 18.808L5.169 19H2C1.49542 19.0002 1.00943 18.8096 0.639452 18.4665C0.269471 18.1234 0.0428434 17.6532 0.00500021 17.15L1.00268e-07 17V2C-0.000159579 1.49542 0.190406 1.00943 0.533497 0.639452C0.876588 0.269471 1.34684 0.0428434 1.85 0.00500021L2 1.00268e-07H14ZM17.191 8.811C17.4696 9.08958 17.6907 9.42032 17.8414 9.78433C17.9922 10.1483 18.0699 10.5385 18.0699 10.9325C18.0699 11.3265 17.9922 11.7167 17.8414 12.0807C17.6907 12.4447 17.4696 12.7754 17.191 13.054L12.95 8.81C13.5126 8.24759 14.2755 7.93164 15.071 7.93164C15.8665 7.93164 16.6294 8.24759 17.192 8.81L17.191 8.811ZM8 4H4C3.73478 4 3.48043 4.10536 3.29289 4.29289C3.10536 4.48043 3 4.73478 3 5C3 5.26522 3.10536 5.51957 3.29289 5.70711C3.48043 5.89464 3.73478 6 4 6H8C8.26522 6 8.51957 5.89464 8.70711 5.70711C8.89464 5.51957 9 5.26522 9 5C9 4.73478 8.89464 4.48043 8.70711 4.29289C8.51957 4.10536 8.26522 4 8 4Z" fill="#F6F6EA"/>
</svg>
