<svg width="163" height="59" viewBox="0 0 163 59" fill="none" xmlns="http://www.w3.org/2000/svg">
<g clip-path="url(#clip0_6437_1267)">
<path d="M160.659 8.79753C160.634 8.91384 160.53 8.97647 160.436 8.93397C159.258 8.38596 158.583 8.2182 157.556 7.75965C155.94 7.04164 154.14 6.76875 152.425 6.72402C151.553 6.70165 150.714 6.86493 149.857 6.90967C148.958 6.95664 148.085 7.43979 147.509 8.27859C146.824 9.27844 146.62 10.7167 146.991 11.9313C147.559 13.7945 149.524 14.555 150.916 15.2663C153.128 16.3982 155.421 16.888 157.715 17.6687C159.258 18.1943 160.847 18.9638 161.852 20.5362C162.551 21.63 162.875 22.9833 162.966 24.3433C163.303 29.2776 161.083 32.6038 157.068 33.5186C154.766 34.0443 152.35 34.1941 150.003 33.8541C147.722 33.5231 145.201 32.7805 143.305 31.1767C142.959 30.8837 142.613 30.5906 142.273 30.2887C142.2 30.2238 142.183 30.1008 142.237 30.0113L143.641 27.6537C143.694 27.5643 143.797 27.5419 143.871 27.6045C144.229 27.8998 145.194 28.6938 145.534 28.9086C148.644 30.8702 153.678 31.4138 157.025 30.1724C160.41 28.9198 161.023 22.697 157.068 21.2453C153.493 19.9323 146.091 18.7938 143.841 15.2328C141.827 12.0431 142.074 6.18718 144.472 3.32632C148.223 -1.14951 157.642 -0.890042 161.842 2.75817C161.898 2.80738 161.923 2.89015 161.906 2.97067L160.66 8.79305L160.659 8.79753Z" fill="#F6F6EA"/>
<path d="M95.8235 0.315286V11.5574C95.8235 11.667 95.8983 11.7565 95.99 11.7565H113.291C113.383 11.7565 113.458 11.667 113.458 11.5574V0.315286C113.458 0.205683 113.533 0.116211 113.624 0.116211H115.84C115.932 0.116211 116.007 0.205683 116.007 0.315286V33.6726C116.007 33.7822 115.932 33.8717 115.84 33.8717H113.624C113.533 33.8717 113.458 33.7822 113.458 33.6726V18.5362C113.458 18.4266 113.383 18.3372 113.291 18.3372H95.99C95.8983 18.3372 95.8235 18.4266 95.8235 18.5362V33.6726C95.8235 33.7822 95.7487 33.8717 95.6571 33.8717H93.228C93.1363 33.8717 93.0615 33.7822 93.0615 33.6726V0.315286C93.0615 0.205683 93.1363 0.116211 93.228 0.116211H95.6571C95.7487 0.116211 95.8235 0.205683 95.8235 0.315286Z" fill="#F6F6EA"/>
<path d="M2.92284 22.0032V33.6524C2.92284 33.762 2.84804 33.8515 2.7564 33.8515H0.166431C0.0748007 33.8515 0 33.762 0 33.6524V0.315216C0 0.205613 0.0748007 0.116141 0.166431 0.116141H5.98405C8.65444 0.116141 11.3398 0.0110115 14.0083 0.104957C16.2392 0.183245 18.5468 1.5969 19.8801 3.73752C21.1985 5.85353 21.6698 8.57795 21.5949 11.1771C21.5912 11.2845 21.5875 11.3918 21.5819 11.4992C21.4715 13.8859 20.9704 16.3508 19.781 18.3103C18.5487 20.339 16.3346 21.8153 14.2121 21.8287C12.8526 21.8377 11.4819 21.8041 10.1187 21.8041H3.08927C2.99764 21.8041 2.92284 21.8936 2.92284 22.0032ZM2.92284 15.1765C2.92284 15.2861 2.99764 15.3756 3.08927 15.3756H10.9994C11.8671 15.3756 12.7703 15.4852 13.6249 15.2973C14.8461 15.0266 16.1382 14.2147 16.8283 12.9442C17.5688 11.5864 17.6455 9.87752 17.5108 8.30729C17.3855 6.83772 16.9517 5.10196 16.0055 4.09317C14.7413 2.74661 13.0565 3.05977 11.4931 3.05977H3.08927C2.99764 3.05977 2.92284 3.14924 2.92284 3.25884V15.1765Z" fill="#F6F6EA"/>
<path d="M46.1915 0.217151L54.5878 18.0892C54.6608 18.2457 54.8553 18.2167 54.8945 18.0444L58.9375 0.264123C58.9581 0.176888 59.0235 0.116495 59.0983 0.116495H66.3764C66.4849 0.116495 66.5653 0.239518 66.5373 0.367016L59.1881 33.8787C59.1694 33.966 59.1021 34.0286 59.0273 34.0286H51.564C51.4537 34.0286 51.3752 33.9056 51.4032 33.7781L53.4827 24.3477C53.4939 24.2963 53.4883 24.2426 53.4658 24.1979L42.012 0.413989C41.9484 0.282018 42.0288 0.114258 42.156 0.114258H46.0456C46.1055 0.114258 46.1616 0.152283 46.1915 0.217151Z" fill="#F6F6EA"/>
<path d="M39.5975 7.21811L35.6293 8.71452C35.5321 8.75031 35.433 8.67874 35.4143 8.56019C35.1431 6.66338 34.0996 2.48057 32.5587 2.069C28.8318 1.07363 28.138 5.91182 28.3979 9.1932C29.045 17.3419 42.0061 16.6171 41.8209 26.251C41.6882 33.1672 35.6667 35.0148 30.8926 33.5676C26.3802 32.1987 25.3816 28.121 25.7444 23.3186C25.7724 22.9473 25.8435 22.2941 25.879 21.972C25.8903 21.8647 25.9725 21.7908 26.0623 21.802L29.9688 22.2896C30.0529 22.3008 30.1165 22.3836 30.1184 22.4842C30.1258 23.2448 30.1576 26.2309 30.2137 27.0652C30.412 30.0558 31.5489 32.5834 34.4101 32.0577C36.2015 31.7289 37.5049 28.7361 37.6938 26.7677C37.821 25.4525 37.7611 22.775 37.3142 21.5806C36.828 20.281 35.0328 18.9389 34.0061 18.212C30.2306 15.5435 24.0464 13.2821 24.8225 6.5493C25.3162 2.26136 27.8426 0.449559 31.2591 0.147591C35.216 -0.203586 38.4418 2.61925 39.7022 6.96311C39.7321 7.06824 39.6835 7.18679 39.5937 7.22034L39.5975 7.21811Z" fill="#F6F6EA"/>
<path d="M88.1377 12.5239L82.6623 13.0696C82.565 13.0786 82.4827 12.9891 82.4827 12.8728C82.4622 10.5264 82.1798 7.88474 81.5215 5.68149C80.6127 2.63945 78.896 1.44724 76.2724 2.63497C70.5894 5.21177 70.5651 17.3867 71.6516 23.2448C72.3921 27.2397 75.1055 33.2075 79.2569 30.8365C81.6375 29.4765 81.5178 23.936 81.7403 21.1109C81.7497 21.0013 81.8301 20.923 81.9217 20.932L86.7052 21.4755C86.7931 21.4867 86.8604 21.5762 86.8567 21.6835C86.6529 26.7991 85.1774 33.25 80.1527 33.9345C75.659 34.5474 72.4351 32.0578 70.8662 27.0787C68.5997 19.8874 68.2706 5.09769 75.1317 1.275C77.4112 0.00673838 82.0152 -0.391412 84.2779 0.943956C87.7824 3.01299 87.6215 8.28512 88.2873 12.2845C88.306 12.4008 88.2368 12.5104 88.1377 12.5216V12.5239Z" fill="#F6F6EA"/>
<path d="M136.582 0.315286V9.39668C136.582 9.50628 136.507 9.59576 136.416 9.59576H124.425C124.334 9.59576 124.259 9.68523 124.259 9.79483V11.7655C124.259 11.8751 124.334 11.9645 124.425 11.9645H135.423C135.514 11.9645 135.589 12.054 135.589 12.1636V19.1111C135.589 19.2207 135.514 19.3102 135.423 19.3102H124.425C124.334 19.3102 124.259 19.3996 124.259 19.5092V24.5599C124.259 24.6695 124.334 24.759 124.425 24.759H137.807C137.899 24.759 137.973 24.8485 137.973 24.9581V33.8024C137.973 33.912 137.899 34.0014 137.807 34.0014H122.237C122.146 34.0014 122.071 33.912 122.071 33.8024V0.315286C122.071 0.205683 122.146 0.116211 122.237 0.116211H136.416C136.507 0.116211 136.582 0.205683 136.582 0.315286Z" fill="#F6F6EA"/>
<path d="M5.52577 45.123C8.24664 44.953 10.2793 46.6396 10.8553 49.8494C11.3079 52.3635 11.1639 55.8194 9.39857 57.5932C7.74735 59.2529 4.23172 59.2171 2.41593 57.96C0.113938 56.3652 -0.289986 52.6364 0.38135 49.8024C1.09383 46.7984 2.97132 45.2818 5.52577 45.1208V45.123ZM5.72586 47.6215C2.87408 47.9034 2.07933 50.7463 2.40471 53.7571C2.75814 57.0273 4.79646 58.0226 7.34529 57.4031C9.75948 56.817 10.2681 54.1776 10.0699 51.565C9.85299 48.7109 8.00915 47.3956 5.72773 47.6215H5.72586Z" fill="#F6F6EA"/>
<path d="M123.801 45.2438C125.712 45.1186 127.606 45.9775 128.554 48.0421C129.715 50.5696 129.758 55.5667 127.823 57.5977C126.183 59.3178 122.714 59.3916 120.857 58.1815C119.152 57.072 118.557 55.1998 118.434 52.9876C118.194 48.7176 120.098 45.4899 123.799 45.2461L123.801 45.2438ZM124.049 47.7401C122.518 47.8765 121.272 48.8943 120.848 50.6971C120.423 52.5 120.575 55.5063 121.869 56.7947C123.075 57.9958 125.871 57.922 127.097 56.7902C128.38 55.6069 128.556 52.8534 128.285 51.0998C127.892 48.5699 126.067 47.5589 124.051 47.7401H124.049Z" fill="#F6F6EA"/>
<path d="M146.316 45.2439C149.21 45.0628 151.185 46.9417 151.696 50.3282C152.116 53.1197 151.825 56.8328 149.463 58.2755C147.973 59.1859 145.42 59.206 143.873 58.4746C141.057 57.1415 140.451 53.3121 141.121 50.1023C141.764 47.0132 143.726 45.4072 146.316 45.2439ZM146.516 47.7402C145.194 47.861 144.002 48.6931 143.481 50.1805C142.869 51.9208 142.995 55.3789 144.262 56.703C145.53 58.0272 148.206 57.9467 149.515 56.8484C151.146 55.4773 151.256 51.2318 150.187 49.3954C149.411 48.0623 147.81 47.6239 146.518 47.7402H146.516Z" fill="#F6F6EA"/>
<path d="M154.166 45.584H158.929C158.948 45.584 158.966 45.5862 158.983 45.5952C159.157 45.669 159.338 45.6175 159.505 45.6421C161.816 45.9844 162.688 48.1183 162.256 50.713C161.99 52.3056 161.005 52.905 159.791 53.3009C159.698 53.33 159.593 53.2808 159.529 53.4038L162.858 58.2756C162.89 58.3225 162.903 58.3874 162.892 58.4478C162.875 58.5395 162.806 58.6021 162.729 58.6021H161.904C161.856 58.5999 161.809 58.5731 161.777 58.5283L158.308 53.5671C158.276 53.5224 158.23 53.4955 158.181 53.4955H156.259C156.167 53.4955 156.092 53.585 156.092 53.6946V58.4098C156.092 58.5194 156.017 58.6089 155.926 58.6089H154.168C154.076 58.6089 154.001 58.5194 154.001 58.4098V45.7875C154.001 45.6779 154.076 45.5885 154.168 45.5885L154.166 45.584ZM156.092 46.8545V50.7666C156.092 50.9255 156.201 51.0552 156.333 51.0552H158.957C158.968 51.0552 159.007 51.0015 159.058 50.997C159.477 50.9501 159.673 50.9724 160.062 50.7107C161.036 50.0553 161.046 47.946 160.202 47.1319C160.055 46.9887 159.525 46.6554 159.355 46.6554H156.259C156.167 46.6554 156.092 46.7449 156.092 46.8545Z" fill="#F6F6EA"/>
<path d="M117.048 46.7L116.566 48.8384C116.547 48.9234 116.483 48.986 116.41 48.9882C116.051 48.9949 115.799 48.6348 115.479 48.429C113.57 47.1988 110.57 47.6395 109.396 49.9903C108.583 51.621 108.809 54.6473 109.744 56.1661C111.03 58.2553 114.619 58.1949 116.238 56.7298C116.364 56.6157 116.448 56.401 116.616 56.401C116.854 56.401 117.067 57.0183 117.265 57.1772C117.306 57.242 117.293 57.2912 117.265 57.3583C117.23 57.4389 116.713 57.8639 116.607 57.9421C114.509 59.4699 110.494 59.4609 108.77 57.1503C107.079 54.8844 107.118 49.9993 108.599 47.6126C110.32 44.8367 114.054 44.5325 116.476 46.1095C116.644 46.2191 116.801 46.3645 116.971 46.4763C117.037 46.5188 117.069 46.6128 117.048 46.7Z" fill="#F6F6EA"/>
<path d="M21.8771 45.6645V46.3355C21.8771 46.4451 21.8023 46.5346 21.7107 46.5346H14.4232C14.3316 46.5346 14.2568 46.6241 14.2568 46.7337V50.4065C14.2568 50.5653 14.3652 50.695 14.498 50.695H21.3123C21.404 50.695 21.4788 50.7845 21.4788 50.8941V52.9028C21.4788 53.0616 21.3703 53.1913 21.2375 53.1913H14.4232C14.3316 53.1913 14.2568 53.2808 14.2568 53.3904V58.2912C14.2568 58.3986 14.1876 58.4858 14.0978 58.4903L13.3853 58.5305C13.29 58.535 13.2114 58.4455 13.2114 58.3315V45.7495C13.2114 45.5907 13.3199 45.4609 13.4527 45.4609H21.7107C21.8023 45.4609 21.8771 45.5504 21.8771 45.66V45.6645Z" fill="#F6F6EA"/>
<path d="M133.826 45.7247V57.3382C133.826 57.4478 133.899 57.5373 133.991 57.5373L139.587 57.5932C139.679 57.5932 139.752 57.6827 139.752 57.7923V58.4051C139.752 58.5148 139.677 58.6042 139.586 58.6042H131.801C131.709 58.6042 131.634 58.5148 131.634 58.4051V45.7225C131.634 45.6129 131.709 45.5234 131.801 45.5234H133.66C133.751 45.5234 133.826 45.6129 133.826 45.7225V45.7247Z" fill="#F6F6EA"/>
</g>
<defs>
<clipPath id="clip0_6437_1267">
<rect width="163" height="59" fill="white"/>
</clipPath>
</defs>
</svg>
