<svg width="24" height="24" viewBox="0 0 24 24" fill="none" xmlns="http://www.w3.org/2000/svg">
<path d="M9 5.22998C9 4.63324 9.23705 4.06095 9.65901 3.63899C10.081 3.21703 10.6533 2.97998 11.25 2.97998H12.75C13.3467 2.97998 13.919 3.21703 14.341 3.63899C14.7629 4.06095 15 4.63324 15 5.22998V21H9V5.22998ZM7.5 9.99998H5.25C4.65326 9.99998 4.08097 10.237 3.65901 10.659C3.23705 11.0809 3 11.6532 3 12.25V20.25C3 20.665 3.336 21 3.75 21H7.5V9.99998ZM16.5 21H20.25C20.4489 21 20.6397 20.921 20.7803 20.7803C20.921 20.6397 21 20.4489 21 20.25V9.24998C21 8.65324 20.7629 8.08095 20.341 7.65899C19.919 7.23703 19.3467 6.99998 18.75 6.99998H16.5V21Z" fill="#F6F6EA"/>
</svg>
