<svg width="24" height="24" viewBox="0 0 24 24" fill="none" xmlns="http://www.w3.org/2000/svg">
<path fill-rule="evenodd" clip-rule="evenodd" d="M17 9.99951V11.1255C17.367 11.2205 17.714 11.3655 18.032 11.5535L18.828 10.7565L20.243 12.1715L19.446 12.9675C19.634 13.2855 19.779 13.6325 19.874 13.9995H21V15.9995H19.874C19.779 16.3665 19.634 16.7135 19.446 17.0315L20.243 17.8275L18.828 19.2425L18.032 18.4455C17.7097 18.6358 17.3623 18.7798 17 18.8735V19.9995H15V18.8735C14.6377 18.7798 14.2903 18.6358 13.968 18.4455L13.172 19.2425L11.757 17.8275L12.554 17.0315C12.3638 16.7092 12.2197 16.3618 12.126 15.9995H11V13.9995H12.126C12.221 13.6325 12.366 13.2855 12.554 12.9675L11.757 12.1715L13.172 10.7565L13.968 11.5535C14.2903 11.3633 14.6377 11.2192 15 11.1255V9.99951H17ZM17.406 13.5775L17.422 13.5935C17.776 13.9515 17.996 14.4435 18 14.9855V15.0135C17.9974 15.4073 17.8785 15.7916 17.6584 16.1181C17.4383 16.4446 17.1267 16.6989 16.7626 16.8491C16.3986 16.9992 15.9983 17.0386 15.612 16.9621C15.2256 16.8857 14.8705 16.697 14.591 16.4195L14.581 16.4075C14.2164 16.0306 14.0145 15.5255 14.0186 15.0011C14.0228 14.4767 14.2328 13.9749 14.6034 13.6038C14.9739 13.2328 15.4754 13.0221 15.9998 13.0171C16.5242 13.0122 17.0285 13.2135 17.406 13.5775ZM5 7.99951C5.0002 7.4446 5.11586 6.89581 5.33962 6.38801C5.56339 5.88022 5.89036 5.42453 6.29975 5.04994C6.70914 4.67534 7.19199 4.39002 7.71761 4.21211C8.24323 4.03421 8.80012 3.96762 9.35286 4.01657C9.90561 4.06552 10.4421 4.22895 10.9283 4.49646C11.4145 4.76396 11.8397 5.1297 12.1769 5.57042C12.514 6.01114 12.7558 6.51719 12.8869 7.05641C13.0179 7.59562 13.0353 8.1562 12.938 8.70251C11.5291 9.38999 10.3905 10.5286 9.703 11.9375C9.12727 12.0403 8.536 12.0156 7.97085 11.8651C7.4057 11.7146 6.88042 11.4421 6.43202 11.0666C5.98362 10.6911 5.62301 10.2219 5.37559 9.692C5.12817 9.16208 4.99996 8.58435 5 7.99951ZM9.29 12.9995H7C5.93913 12.9995 4.92172 13.4209 4.17157 14.1711C3.42143 14.9212 3 15.9386 3 16.9995V17.9995C3 18.5299 3.21071 19.0387 3.58579 19.4137C3.96086 19.7888 4.46957 19.9995 5 19.9995H11.101C10.4349 19.3484 9.90585 18.5706 9.54502 17.7119C9.18419 16.8532 8.99888 15.931 9 14.9995C9 14.3045 9.101 13.6335 9.29 12.9995Z" fill="#F6F6EA"/>
</svg>
