<svg width="372" height="152" viewBox="0 0 372 152" fill="none" xmlns="http://www.w3.org/2000/svg">
<path d="M38.1212 18.7836C41.0415 14.707 44.9286 11.464 49.4493 9.29379L62.65 2.95678C66.7042 1.01051 71.1442 0.000652316 75.6414 0.00190869L123.151 0.0151813C125.364 0.0157996 127.571 0.261318 129.73 0.747254L178.669 11.7615L197.804 15.5933C201.345 16.3025 204.985 16.3664 208.549 15.7819L282.232 3.69811C286.323 3.0273 290.508 3.2114 294.523 4.23881L327.88 12.773C335.938 14.8347 342.778 20.1492 346.767 27.4475L367.974 66.2435C374.936 78.979 371.782 94.8716 360.485 103.984L334.438 124.993C330.109 128.484 324.895 130.704 319.378 131.403L291.647 134.92C289.627 135.176 287.638 135.637 285.711 136.297L245.517 150.047C241.748 151.336 237.761 151.862 233.787 151.594L48.6634 139.106C38.2608 138.404 28.9723 132.366 24.1657 123.113C14.7171 104.926 0 76.2965 0 74.4249C0 72.2205 27.2175 34.0049 38.1212 18.7836Z" fill="white"/>
</svg>
