<svg width="12" height="13" viewBox="0 0 12 13" fill="none" xmlns="http://www.w3.org/2000/svg">
<g id="lets-icons:date-today-light">
<g id="Group">
<path id="Vector" d="M9.5 3.5H2.5C1.94772 3.5 1.5 3.94772 1.5 4.5V10C1.5 10.5523 1.94772 11 2.5 11H9.5C10.0523 11 10.5 10.5523 10.5 10V4.5C10.5 3.94772 10.0523 3.5 9.5 3.5Z" stroke="#2E563C"/>
<path id="Vector_2" d="M1.5 5.5C1.5 4.557 1.5 4.086 1.793 3.793C2.086 3.5 2.557 3.5 3.5 3.5H8.5C9.443 3.5 9.914 3.5 10.207 3.793C10.5 4.086 10.5 4.557 10.5 5.5H1.5Z" fill="#2E563C"/>
<path id="Vector_3" d="M3.5 2V3.5M8.5 2V3.5" stroke="#2E563C" stroke-linecap="round"/>
</g>
</g>
</svg>
