<svg width="12" height="13" viewBox="0 0 12 13" fill="none" xmlns="http://www.w3.org/2000/svg">
<g id="mingcute:time-line">
<g id="Group">
<path id="Vector" d="M6 1.5C8.7615 1.5 11 3.7385 11 6.5C11 9.2615 8.7615 11.5 6 11.5C3.2385 11.5 1 9.2615 1 6.5C1 3.7385 3.2385 1.5 6 1.5ZM6 2.5C4.93913 2.5 3.92172 2.92143 3.17157 3.67157C2.42143 4.42172 2 5.43913 2 6.5C2 7.56087 2.42143 8.57828 3.17157 9.32843C3.92172 10.0786 4.93913 10.5 6 10.5C7.06087 10.5 8.07828 10.0786 8.82843 9.32843C9.57857 8.57828 10 7.56087 10 6.5C10 5.43913 9.57857 4.42172 8.82843 3.67157C8.07828 2.92143 7.06087 2.5 6 2.5ZM6 3.5C6.12247 3.50002 6.24067 3.54498 6.33219 3.62636C6.4237 3.70774 6.48217 3.81987 6.4965 3.9415L6.5 4V6.293L7.8535 7.6465C7.94317 7.73648 7.99524 7.85722 7.99911 7.98419C8.00299 8.11117 7.95839 8.23486 7.87438 8.33014C7.79036 8.42542 7.67322 8.48515 7.54676 8.4972C7.4203 8.50925 7.294 8.47271 7.1935 8.395L7.1465 8.3535L5.6465 6.8535C5.56879 6.77572 5.51888 6.6745 5.5045 6.5655L5.5 6.5V4C5.5 3.86739 5.55268 3.74021 5.64645 3.64645C5.74021 3.55268 5.86739 3.5 6 3.5Z" fill="#2E563C"/>
</g>
</g>
</svg>
