<svg width="9" height="6" viewBox="0 0 9 6" fill="none" xmlns="http://www.w3.org/2000/svg">
<path d="M4.6954 5.74014L8.4104 1.37312C8.50772 1.25866 8.56973 1.1194 8.58915 0.971663C8.60857 0.823924 8.58461 0.673823 8.52007 0.538947C8.45553 0.40407 8.35308 0.290006 8.22474 0.21012C8.09639 0.130234 7.94746 0.0878348 7.7954 0.0878907L1.2114 0.0878907C1.05943 0.0880209 0.91063 0.130555 0.782433 0.210514C0.654236 0.290474 0.551942 0.404549 0.487524 0.53939C0.423106 0.67423 0.399228 0.824256 0.418688 0.971906C0.438147 1.11956 0.500137 1.25872 0.597403 1.37312L4.3114 5.74014C4.33486 5.7677 4.36422 5.78987 4.3974 5.80509C4.43058 5.8203 4.46677 5.82819 4.5034 5.82819C4.54004 5.82819 4.57622 5.8203 4.6094 5.80509C4.64258 5.78987 4.67194 5.7677 4.6954 5.74014Z" fill="#010101"/>
</svg>
