<svg width="16" height="16" viewBox="0 0 16 16" fill="none" xmlns="http://www.w3.org/2000/svg">
<path d="M14.5055 3.19196C14.6202 3.08132 14.7117 2.94895 14.7746 2.80257C14.8376 2.6562 14.8708 2.49875 14.8722 2.33942C14.8737 2.18008 14.8434 2.02205 14.7831 1.87455C14.7229 1.72705 14.6338 1.59302 14.5212 1.4803C14.4086 1.36757 14.2747 1.27841 14.1272 1.218C13.9798 1.15759 13.8218 1.12716 13.6624 1.12847C13.5031 1.12978 13.3456 1.1628 13.1992 1.22563C13.0528 1.28845 12.9203 1.3798 12.8095 1.49436L7.99995 6.30236L3.19195 1.49436C3.08209 1.37646 2.94961 1.2819 2.80241 1.21631C2.65521 1.15072 2.49631 1.11546 2.33518 1.11261C2.17406 1.10977 2.01401 1.13941 1.86459 1.19976C1.71517 1.26012 1.57944 1.34995 1.46549 1.4639C1.35154 1.57785 1.2617 1.71358 1.20135 1.863C1.141 2.01242 1.11136 2.17247 1.1142 2.3336C1.11704 2.49472 1.15231 2.65362 1.2179 2.80082C1.28348 2.94802 1.37805 3.0805 1.49595 3.19036L6.30075 7.99996L1.49275 12.808C1.28078 13.0354 1.16538 13.3363 1.17087 13.6472C1.17635 13.9581 1.30229 14.2547 1.52215 14.4746C1.74201 14.6944 2.03863 14.8204 2.34951 14.8258C2.66039 14.8313 2.96127 14.7159 3.18875 14.504L7.99995 9.69596L12.8079 14.5056C13.0354 14.7175 13.3363 14.8329 13.6472 14.8274C13.9581 14.822 14.2547 14.696 14.4745 14.4762C14.6944 14.2563 14.8203 13.9597 14.8258 13.6488C14.8313 13.3379 14.7159 13.037 14.5039 12.8096L9.69915 7.99996L14.5055 3.19196Z" fill="#010101"/>
</svg>
