<svg width="29" height="28" viewBox="0 0 29 28" fill="none" xmlns="http://www.w3.org/2000/svg">
<path id="Icon" fill-rule="evenodd" clip-rule="evenodd" d="M17.2538 3.33693C15.7786 2.09217 13.4494 2.09217 11.9742 3.33693L4.13444 9.95197C3.94236 10.114 3.81315 10.3252 3.76514 10.5554C2.82613 15.0583 2.75682 19.6681 3.56011 24.1912L3.75078 25.2648H8.79455V16.0093C8.79455 15.3921 9.36356 14.8918 10.0655 14.8918H19.1626C19.8645 14.8918 20.4335 15.3921 20.4335 16.0093V25.2648H25.4772L25.6679 24.1912C26.4712 19.6681 26.4019 15.0583 25.4629 10.5554C25.4149 10.3252 25.2857 10.114 25.0936 9.95197L17.2538 3.33693ZM10.2143 1.72417C12.673 -0.35044 16.555 -0.35044 19.0137 1.72417L26.8535 8.33921C27.4306 8.82617 27.8188 9.46049 27.963 10.1523C28.9536 14.9021 29.0267 19.7648 28.1793 24.5361L27.873 26.2608C27.7463 26.9741 27.0477 27.5 26.2267 27.5H19.1626C18.4606 27.5 17.8916 26.9996 17.8916 26.3824V17.1269H11.3364V26.3824C11.3364 26.9996 10.7674 27.5 10.0655 27.5H3.00133C2.18035 27.5 1.48171 26.9741 1.35503 26.2608L1.04872 24.5361C0.201358 19.7648 0.274474 14.9022 1.26499 10.1523C1.40925 9.46049 1.79745 8.82617 2.37456 8.33921L10.2143 1.72417Z" fill="#241E40"/>
</svg>
