<svg width="27" height="27" viewBox="0 0 27 27" fill="none" xmlns="http://www.w3.org/2000/svg">
<g id="hidden">
<path id="Vector" d="M10.956 10.9561C10.6023 11.2857 10.3186 11.6831 10.1218 12.1247C9.92507 12.5663 9.81927 13.043 9.81074 13.5264C9.80221 14.0098 9.89113 14.4899 10.0722 14.9382C10.2533 15.3864 10.5227 15.7936 10.8646 16.1355C11.2064 16.4773 11.6136 16.7468 12.0619 16.9279C12.5102 17.1089 12.9903 17.1979 13.4737 17.1893C13.9571 17.1808 14.4338 17.075 14.8754 16.8782C15.317 16.6815 15.7144 16.3978 16.044 16.0441M11.976 5.1961C12.4816 5.13311 12.9905 5.10105 13.5 5.1001C21.9 5.1001 25.5 13.5001 25.5 13.5001C24.9635 14.6486 24.2906 15.7284 23.496 16.7161" stroke="#909090" stroke-width="2" stroke-linecap="round" stroke-linejoin="round"/>
<path id="Vector_2" d="M7.032 7.032C4.6455 8.65755 2.73585 10.8903 1.5 13.5C1.5 13.5 5.1 21.9 13.5 21.9C15.7991 21.9062 18.0489 21.2341 19.968 19.968M1.5 1.5L25.5 25.5" stroke="#909090" stroke-width="2" stroke-linecap="round" stroke-linejoin="round"/>
</g>
</svg>
