<svg width="18" height="22" viewBox="0 0 18 22" fill="none" xmlns="http://www.w3.org/2000/svg">
<path id="Vector" d="M10.7386 0H1.22727C0.90178 0 0.589618 0.124171 0.35946 0.345196C0.129301 0.566221 0 0.865995 0 1.17857V20.8214C0 21.134 0.129301 21.4338 0.35946 21.6548C0.589618 21.8758 0.90178 22 1.22727 22H10.7386V0ZM16.7727 0H13.8068V22H16.7727C17.0982 22 17.4104 21.8758 17.6405 21.6548C17.8707 21.4338 18 21.134 18 20.8214V1.17857C18 0.865995 17.8707 0.566221 17.6405 0.345196C17.4104 0.124171 17.0982 0 16.7727 0Z" fill="black"/>
</svg>
