<svg width="8" height="13" viewBox="0 0 8 13" fill="none" xmlns="http://www.w3.org/2000/svg">
<g id="direction">
<path id="Vector" d="M0.122715 6.21919L6.20884 0.771716C6.36835 0.629011 6.56243 0.538091 6.76833 0.50961C6.97422 0.481129 7.18341 0.516266 7.37138 0.610905C7.55935 0.705543 7.71832 0.855764 7.82965 1.04396C7.94099 1.23216 8.00008 1.45054 8 1.67352L8 11.3279C7.99982 11.5508 7.94054 11.769 7.8291 11.957C7.71767 12.1449 7.55869 12.2949 7.37077 12.3894C7.18284 12.4839 6.97376 12.5189 6.76799 12.4903C6.56221 12.4618 6.36826 12.3709 6.20884 12.2283L0.122715 6.78227C0.0843039 6.74787 0.0534039 6.70482 0.032198 6.65617C0.0109921 6.60751 7.21986e-08 6.55445 7.1558e-08 6.50073C7.09174e-08 6.44701 0.0109921 6.39395 0.032198 6.3453C0.0534039 6.29665 0.0843039 6.2536 0.122715 6.21919Z" fill="#2E563C"/>
</g>
</svg>
