<svg width="17" height="18" viewBox="0 0 17 18" fill="none" xmlns="http://www.w3.org/2000/svg">
<path d="M13.5492 17.28C12.5692 18.23 11.4992 18.08 10.4692 17.63C9.37919 17.17 8.37919 17.15 7.22919 17.63C5.78919 18.25 5.02919 18.07 4.16919 17.28C-0.710813 12.25 0.0091877 4.59 5.54919 4.31C6.89919 4.38 7.83919 5.05 8.62919 5.11C9.80919 4.87 10.9392 4.18 12.1992 4.27C13.7092 4.39 14.8492 4.99 15.5992 6.07C12.4792 7.94 13.2192 12.05 16.0792 13.2C15.5092 14.7 14.7692 16.19 13.5392 17.29L13.5492 17.28ZM8.52919 4.25C8.37919 2.02 10.1892 0.18 12.2692 0C12.5592 2.58 9.92919 4.5 8.52919 4.25Z" fill="white"/>
</svg>
