<svg width="26" height="24" viewBox="0 0 26 24" fill="none" xmlns="http://www.w3.org/2000/svg">
<path id="Vector" d="M23.25 2.58333H19.1554L16.7917 0H9.04167L6.67792 2.58333H2.58333C1.89819 2.58333 1.24111 2.8555 0.756641 3.33997C0.272172 3.82444 0 4.48152 0 5.16667V20.6667C0 21.3518 0.272172 22.0089 0.756641 22.4934C1.24111 22.9778 1.89819 23.25 2.58333 23.25H23.25C23.9351 23.25 24.5922 22.9778 25.0767 22.4934C25.5612 22.0089 25.8333 21.3518 25.8333 20.6667V5.16667C25.8333 4.48152 25.5612 3.82444 25.0767 3.33997C24.5922 2.8555 23.9351 2.58333 23.25 2.58333ZM23.25 20.6667H2.58333V5.16667H7.81458L10.1783 2.58333H15.655L18.0188 5.16667H23.25V20.6667ZM12.9167 6.45833C11.2038 6.45833 9.56111 7.13876 8.34994 8.34994C7.13876 9.56111 6.45833 11.2038 6.45833 12.9167C6.45833 14.6295 7.13876 16.2722 8.34994 17.4834C9.56111 18.6946 11.2038 19.375 12.9167 19.375C14.6295 19.375 16.2722 18.6946 17.4834 17.4834C18.6946 16.2722 19.375 14.6295 19.375 12.9167C19.375 11.2038 18.6946 9.56111 17.4834 8.34994C16.2722 7.13876 14.6295 6.45833 12.9167 6.45833ZM12.9167 16.7917C11.889 16.7917 10.9033 16.3834 10.1766 15.6567C9.44992 14.93 9.04167 13.9444 9.04167 12.9167C9.04167 11.889 9.44992 10.9033 10.1766 10.1766C10.9033 9.44992 11.889 9.04167 12.9167 9.04167C13.9444 9.04167 14.93 9.44992 15.6567 10.1766C16.3834 10.9033 16.7917 11.889 16.7917 12.9167C16.7917 13.9444 16.3834 14.93 15.6567 15.6567C14.93 16.3834 13.9444 16.7917 12.9167 16.7917Z" fill="black"/>
</svg>
