<svg width="26" height="31" viewBox="0 0 26 31" fill="none" xmlns="http://www.w3.org/2000/svg">
<path d="M18.7101 10.275C18.7026 9.47494 18.3678 8.70968 17.7777 8.14393C17.1876 7.57818 16.3894 7.25718 15.5549 7.25C14.4076 7.25 13.5471 7.6625 12.9734 8.4875C12.3998 7.6625 11.5393 7.25 10.3919 7.25C9.55744 7.25718 8.75925 7.57818 8.16916 8.14393C7.57906 8.70968 7.24424 9.47494 7.23676 10.275C7.23676 11.1 7.66701 11.925 8.24067 12.475C9.80273 13.9569 11.3804 15.4237 12.9734 16.875C14.5593 15.4627 16.1369 14.0418 17.7062 12.6125C18.0255 12.3053 18.2786 11.9407 18.4509 11.5396C18.6231 11.1385 18.7112 10.7088 18.7101 10.275Z" stroke="black" stroke-width="2" stroke-linecap="round" stroke-linejoin="round"/>
<path d="M1.50006 25.8125V5.1875C1.50006 4.27582 1.87781 3.40148 2.55021 2.75682C3.2226 2.11216 4.13457 1.75 5.08548 1.75H23.0126C23.393 1.75 23.7577 1.89487 24.0267 2.15273C24.2957 2.41059 24.4468 2.76033 24.4468 3.125V27.875C24.4468 28.2397 24.2957 28.5894 24.0267 28.8473C23.7577 29.1051 23.393 29.25 23.0126 29.25H5.08548C4.13457 29.25 3.2226 28.8878 2.55021 28.2432C1.87781 27.5985 1.50006 26.7242 1.50006 25.8125ZM1.50006 25.8125C1.50006 24.9008 1.87781 24.0265 2.55021 23.3818C3.2226 22.7372 4.13457 22.375 5.08548 22.375H24.4468" stroke="black" stroke-width="2" stroke-linecap="round" stroke-linejoin="round"/>
</svg>
