<svg width="30" height="28" viewBox="0 0 30 28" fill="none" xmlns="http://www.w3.org/2000/svg">
<path id="Icon" fill-rule="evenodd" clip-rule="evenodd" d="M0.764648 9.17788C0.764648 4.08759 4.59606 0.168213 9.0933 0.168213C11.4115 0.168213 13.4514 1.43516 14.9153 3.07449C16.3791 1.43516 18.419 0.168213 20.7373 0.168213C25.2345 0.168213 29.0659 4.08759 29.0659 9.17788C29.0659 12.6648 27.7901 15.7312 26.0226 18.3232C24.2581 20.9107 21.9501 23.1067 19.7402 24.8912C18.8961 25.5727 18.0422 26.2014 17.2607 26.6653C16.5268 27.1009 15.683 27.5 14.9153 27.5C14.1475 27.5 13.3037 27.1009 12.5699 26.6653C11.7884 26.2014 10.9344 25.5727 10.0904 24.8912C7.88047 23.1067 5.57242 20.9107 3.80796 18.3232C2.04044 15.7312 0.764648 12.6648 0.764648 9.17788ZM9.0933 2.99564C5.73071 2.99564 3.19047 5.87791 3.19047 9.17788C3.19047 11.8234 4.15399 14.2865 5.707 16.5639C7.26307 18.8458 9.35679 20.8592 11.4718 22.567C12.2721 23.2132 13.026 23.7631 13.6708 24.1458C14.3632 24.5569 14.7643 24.6726 14.9153 24.6726C15.0662 24.6726 15.4673 24.5569 16.1598 24.1458C16.8046 23.7631 17.5584 23.2132 18.3587 22.567C20.4738 20.8592 22.5675 18.8458 24.1236 16.5639C25.6766 14.2865 26.6401 11.8234 26.6401 9.17788C26.6401 5.87791 24.0998 2.99564 20.7373 2.99564C18.8061 2.99564 17.0028 4.3404 15.8768 6.04722C15.6472 6.39526 15.2919 6.59922 14.9153 6.59922C14.5386 6.59922 14.1833 6.39526 13.9537 6.04722C12.8278 4.3404 11.0245 2.99564 9.0933 2.99564Z" fill="#241E40" fill-opacity="0.85"/>
</svg>
