<svg width="8" height="13" viewBox="0 0 8 13" fill="none" xmlns="http://www.w3.org/2000/svg">
<g id="direction">
<path id="Vector" d="M7.87729 6.21919L1.79116 0.771716C1.63165 0.629011 1.43757 0.538091 1.23167 0.50961C1.02578 0.481129 0.816588 0.516266 0.628617 0.610905C0.440646 0.705543 0.28168 0.855764 0.170346 1.04396C0.0590121 1.23216 -7.78148e-05 1.45054 6.28911e-08 1.67352L-5.22368e-08 11.3279C0.000181407 11.5508 0.0594595 11.769 0.170895 11.957C0.282331 12.1449 0.441313 12.2949 0.629234 12.3894C0.817155 12.4839 1.02624 12.5189 1.23201 12.4903C1.43779 12.4618 1.63174 12.3709 1.79116 12.2283L7.87729 6.78227C7.9157 6.74787 7.9466 6.70482 7.9678 6.65617C7.98901 6.60751 8 6.55445 8 6.50073C8 6.44701 7.98901 6.39395 7.9678 6.3453C7.9466 6.29665 7.9157 6.2536 7.87729 6.21919Z" fill="#2E563C"/>
</g>
</svg>
