<svg width="9" height="6" viewBox="0 0 9 6" fill="none" xmlns="http://www.w3.org/2000/svg">
<path d="M4.31241 0.175879L0.59741 4.5429C0.50009 4.65736 0.438086 4.79661 0.418663 4.94435C0.39924 5.09209 0.423202 5.24219 0.487743 5.37707C0.552283 5.51195 0.654728 5.62601 0.783074 5.7059C0.911419 5.78578 1.06035 5.82818 1.21241 5.82812H7.79641C7.94839 5.82799 8.09718 5.78546 8.22538 5.7055C8.35358 5.62554 8.45587 5.51147 8.52029 5.37663C8.58471 5.24179 8.60858 5.09176 8.58912 4.94411C8.56966 4.79646 8.50768 4.65729 8.41041 4.5429L4.69641 0.175879C4.67295 0.148318 4.64359 0.126146 4.61041 0.11093C4.57723 0.0957146 4.54104 0.0878272 4.50441 0.0878272C4.46778 0.0878272 4.43159 0.0957146 4.39841 0.11093C4.36523 0.126146 4.33587 0.148318 4.31241 0.175879Z" fill="#010101"/>
</svg>
